<?xml version="1.0" standalone="no"?>
<!DOCTYPE svg PUBLIC "-//W3C//DTD SVG 20010904//EN" "http://www.w3.org/TR/2001/REC-SVG-20010904/DTD/svg10.dtd">
<svg version="1.0" xmlns="http://www.w3.org/2000/svg" width="1400.000000pt" height="959.000000pt"
  viewBox="0 0 1400.000000 959.000000" preserveAspectRatio="xMidYMid meet">

  <g transform="translate(0.000000,959.000000) scale(0.100000,-0.100000)" fill="#ef3e3e" stroke="none">
    <path d="M7685 9584 c-532 -41 -985 -160 -1389 -367 -434 -222 -801 -544
-1144 -1005 -251 -337 -443 -746 -552 -1169 -8 -32 -16 -43 -30 -43 -11 0 -84
14 -162 31 -617 131 -1208 115 -1780 -49 -1113 -321 -2010 -1195 -2412 -2352
-161 -461 -236 -984 -208 -1438 17 -260 56 -514 113 -724 l10 -38 1492 2
c1491 3 1492 3 1537 24 92 43 175 152 315 414 105 197 162 277 280 396 81 82
115 108 182 141 243 122 459 54 580 -182 100 -197 142 -406 188 -950 36 -421
52 -510 99 -554 42 -40 70 -11 100 104 35 135 57 332 116 1045 42 503 76 835
111 1075 50 352 129 657 206 794 112 201 329 300 538 245 278 -72 470 -408
560 -978 27 -173 243 -1247 345 -1716 205 -942 286 -1208 368 -1198 59 7 101
121 167 453 91 455 171 982 300 1974 73 558 77 590 106 776 103 664 242 1031
457 1201 131 103 295 156 429 137 191 -28 359 -170 446 -379 96 -228 154 -652
177 -1274 19 -525 50 -749 134 -984 52 -147 108 -238 206 -337 139 -140 283
-198 543 -219 88 -7 665 -10 1717 -8 l1584 3 7 35 c42 199 53 628 24 875 -60
508 -236 978 -522 1392 -376 545 -931 961 -1558 1169 l-140 46 0 287 c0 306
-11 421 -62 666 -130 629 -424 1185 -868 1644 -301 310 -571 509 -940 691
-357 176 -708 280 -1100 325 -128 15 -473 27 -570 19z" />
    <path d="M5732 4063 c-56 -209 -89 -428 -137 -903 -73 -731 -129 -1119 -205
-1421 -110 -438 -244 -643 -471 -720 -53 -17 -79 -20 -152 -16 -180 10 -301
104 -402 310 -104 214 -159 476 -220 1053 -26 253 -40 323 -63 332 -23 8 -45
-25 -139 -211 -141 -279 -257 -432 -405 -534 -139 -96 -252 -141 -435 -173
-107 -19 -162 -20 -1407 -20 l-1296 0 52 -88 c243 -414 584 -786 984 -1074
345 -249 723 -442 1015 -518 249 -64 -106 -60 4454 -60 3757 -1 4159 0 4240
15 201 35 407 106 620 213 587 293 1062 764 1362 1348 l84 164 -1458 0 c-1493
0 -1691 4 -1871 39 -271 53 -498 175 -724 390 -335 318 -492 732 -523 1376 -9
197 16 175 -198 175 l-183 0 -23 -197 c-129 -1122 -213 -1658 -333 -2128 -168
-661 -381 -982 -693 -1045 -118 -24 -265 9 -380 86 -103 68 -179 163 -255 319
-205 416 -455 1453 -730 3015 -55 313 -61 342 -77 347 -6 2 -20 -31 -31 -74z" />
  </g>
</svg>