<?xml version="1.0" standalone="no"?>
<!DOCTYPE svg PUBLIC "-//W3C//DTD SVG 20010904//EN" "http://www.w3.org/TR/2001/REC-SVG-20010904/DTD/svg10.dtd">
<svg version="1.0" xmlns="http://www.w3.org/2000/svg" width="512.000000pt" height="512.000000pt"
  viewBox="0 0 512.000000 512.000000" preserveAspectRatio="xMidYMid meet">

  <g transform="translate(0.000000,512.000000) scale(0.100000,-0.100000)" fill="#1A1A1A" stroke="none">
    <path d="M2482 5099 c-46 -14 -109 -80 -122 -128 -7 -27 -9 -419 -8 -1264 l3
-1225 30 -43 c96 -135 311 -104 354 52 9 34 11 329 9 1264 l-3 1220 -24 38
c-47 76 -151 113 -239 86z" />
    <path d="M805 4402 c-69 -33 -255 -240 -373 -415 -206 -304 -336 -628 -409
-1017 -26 -139 -26 -701 0 -840 51 -271 123 -488 238 -719 135 -274 291 -484
521 -706 364 -351 788 -570 1307 -672 130 -26 150 -27 456 -28 289 0 332 2
440 22 442 82 835 261 1177 536 121 97 333 316 426 440 215 285 366 604 447
942 163 676 52 1368 -312 1957 -136 219 -356 472 -439 504 -116 44 -250 -39
-262 -164 -7 -76 12 -115 100 -211 621 -673 762 -1623 363 -2436 -330 -671
-985 -1121 -1739 -1194 -441 -43 -928 68 -1311 300 -191 115 -423 318 -562
489 -355 440 -527 1010 -472 1566 46 472 244 914 568 1265 96 103 115 142 109
217 -11 131 -157 219 -273 164z" />
  </g>
</svg>